<svg version="1.1" viewBox="0.0 0.0 559.7480314960629 303.45931758530185" fill="none" stroke="none" stroke-linecap="square" stroke-miterlimit="10" xmlns:xlink="http://www.w3.org/1999/xlink" xmlns="http://www.w3.org/2000/svg"><clipPath id="p.0"><path d="m0 0l559.74805 0l0 303.45932l-559.74805 0l0 -303.45932z" clip-rule="nonzero"/></clipPath><g clip-path="url(#p.0)"><path fill="#000000" fill-opacity="0.0" d="m0 0l559.74805 0l0 303.45932l-559.74805 0z" fill-rule="evenodd"/><path fill="#000000" d="m4.108924 21.334646l551.5275 0l0 260.78738l-551.5275 0zm32.598423 32.598427l0 195.59055l486.33075 0l0 -195.59055z" fill-rule="evenodd"/><path stroke="#ffffff" stroke-width="1.0" stroke-linejoin="round" stroke-linecap="butt" d="m4.108924 21.334646l551.5275 0l0 260.78738l-551.5275 0zm32.598423 32.598427l0 195.59055l486.33075 0l0 -195.59055z" fill-rule="evenodd"/><path fill="#000000" fill-opacity="0.0" d="m71.60499 64.468506l416.53543 0l0 174.51968l-416.53543 0z" fill-rule="evenodd"/><path stroke="#ffffff" stroke-width="1.0" stroke-linejoin="round" stroke-linecap="butt" d="m71.60499 64.468506l416.53543 0l0 174.51968l-416.53543 0z" fill-rule="evenodd"/><path fill="#ffffff" d="m188.61606 189.35522l9.84375 -1.28125l0 -74.75l-9.34375 -1.78125l0 -8.84375l19.71875 0q2.4375 0 5.3125 -0.125q2.875 -0.125 4.40625 -0.25q6.921875 -0.515625 11.78125 -0.515625q13.703125 0 21.765625 2.625q8.0625 2.625 11.703125 8.203125q3.65625 5.5625 3.65625 14.640625q0 8.703125 -4.609375 16.265625q-4.609375 7.546875 -13.5625 10.359375q5.875 2.171875 9.90625 8.125q4.03125 5.953125 8.390625 15.171875q2.5625 5.375 4.09375 8.0q1.53125 2.625 3.203125 3.015625l3.71875 1.140625l0 8.453125l-24.328125 0q-1.921875 0 -3.96875 -4.09375q-2.046875 -4.09375 -5.25 -12.796875q-3.96875 -10.625 -6.84375 -16.453125q-2.875 -5.828125 -6.34375 -7.109375l-11.515625 0l0 30.71875l11.390625 1.28125l0 8.453125l-43.125 0l0 -8.453125zm41.59375 -40.3125q6.65625 0 10.359375 -5.1875q3.71875 -5.1875 3.71875 -15.671875q0 -9.21875 -3.65625 -13.5q-3.640625 -4.296875 -12.21875 -4.296875q-4.609375 0 -8.0625 0.640625l0 37.625q1.671875 0.390625 5.5 0.390625q3.84375 0 4.359375 0zm61.818024 -35.59375l-9.34375 -1.78125l0 -8.96875l19.96875 0q4.234375 0 11.390625 -0.5q1.671875 -0.140625 5.0625 -0.265625q3.390625 -0.125 6.078125 -0.125q23.296875 0 35.0625 11.65625q11.78125 11.640625 11.78125 33.40625q0 14.96875 -5.765625 26.75q-5.75 11.765625 -16.5 18.5q-10.75 6.71875 -25.34375 6.71875q-3.96875 0 -11.90625 -0.515625q-7.421875 -0.515625 -9.59375 -0.515625l-20.734375 0l0 -8.453125l9.84375 -1.40625l0 -74.5zm21.640625 74.890625q4.46875 1.40625 10.234375 1.15625q11.515625 -0.140625 17.84375 -9.796875q6.34375 -9.671875 6.34375 -29.640625q0 -18.421875 -6.203125 -28.859375q-6.203125 -10.4375 -19.515625 -10.4375q-3.078125 0 -5.515625 0.390625q-2.421875 0.390625 -3.1875 0.515625l0 76.671875z" fill-rule="nonzero"/></g></svg>
